<?xml version="1.0" standalone="no"?>
<!DOCTYPE svg PUBLIC "-//W3C//DTD SVG 20010904//EN"
 "http://www.w3.org/TR/2001/REC-SVG-20010904/DTD/svg10.dtd">
<svg version="1.0" xmlns="http://www.w3.org/2000/svg"
 width="118.000000pt" height="26.000000pt" viewBox="0 0 118.000000 26.000000"
 preserveAspectRatio="xMidYMid meet">

<g transform="translate(0.000000,26.000000) scale(0.100000,-0.100000)"
fill="#000000" stroke="none">
<path d="M80 120 c0 -72 3 -90 15 -90 10 0 15 15 17 58 l3 57 39 -58 c24 -35
46 -57 57 -57 17 0 19 9 19 90 0 83 -2 90 -19 90 -17 0 -20 -8 -23 -52 l-3
-53 -35 52 c-20 30 -43 53 -52 53 -16 0 -18 -11 -18 -90z"/>
<path d="M290 120 l0 -90 60 0 c46 0 60 3 60 14 0 10 -14 16 -42 18 -35 2 -43
7 -43 23 0 16 8 21 38 23 49 4 44 26 -7 30 -29 3 -36 7 -34 20 2 12 15 18 46
20 28 2 42 8 42 18 0 11 -14 14 -60 14 l-60 0 0 -90z"/>
<path d="M485 185 c-34 -34 -35 -96 -1 -130 21 -21 33 -24 80 -23 l56 2 0 53
0 54 -37 -3 c-41 -3 -57 -25 -22 -30 31 -4 35 -24 8 -38 -50 -27 -97 36 -63
87 14 22 21 24 53 19 43 -6 56 1 40 21 -20 23 -87 16 -114 -12z"/>
<path d="M680 120 c0 -83 1 -90 20 -90 16 0 20 7 20 35 0 19 4 35 8 35 5 0 16
-16 25 -35 9 -19 23 -35 32 -35 19 0 19 13 0 49 -13 26 -13 30 0 41 18 15 20
61 3 78 -7 7 -34 12 -60 12 l-48 0 0 -90z m85 40 c0 -8 -10 -16 -22 -18 -18
-3 -23 2 -23 18 0 16 5 21 23 18 12 -2 22 -10 22 -18z"/>
<path d="M888 199 c-21 -12 -37 -67 -31 -103 16 -82 142 -86 168 -5 11 33 -4
87 -28 104 -24 17 -83 19 -109 4z m90 -31 c19 -19 14 -73 -9 -94 -19 -17 -23
-17 -47 -3 -33 18 -41 62 -16 90 19 22 54 25 72 7z"/>
<path d="M1082 49 c5 -14 21 -14 26 0 2 6 -4 11 -13 11 -9 0 -15 -5 -13 -11z"/>
</g>
</svg>
